# xmcd
#
# Track frame offsets:
#	150
#	16922
#	33977
#	49830
#	73260
#	101495
#	125207
#	139727
#	158027
#	171537
#	195107
#	217482
#	234667
#	247665
#	257792
#
# Disc length: 3634 seconds
#
# Revision: 0
# Processed by: cddbd v1.4PL0 Copyright (c) Steve Scherf et al.
# Submitted via: dBpowerAMP V4.0
#
DISCID=da0e300f
DTITLE=Blue Hawaiians - This That ( and the other thing )
DYEAR=98
DGENRE=Blues
TTITLE0=Honey Dripper Pt. 2
TTITLE1=Good Rockin' Tonight
TTITLE2=Woke Up This Morning
TTITLE3=Going Down Slow
TTITLE4=Sleepin' In The Bed I Made
TTITLE5=Johnny Too Bad
TTITLE6=Around And Around
TTITLE7=In The Dark
TTITLE8=I Can't Lose With The Stuff I Use
TTITLE9=A Leason Learned
TTITLE10=Toe Jam
TTITLE11=Rockin' Good Way
TTITLE12=Next Time You See Me
TTITLE13=Somethin' Else
TTITLE14=Mystery Train
EXTD=
EXTT0=
EXTT1=
EXTT2=
EXTT3=
EXTT4=
EXTT5=
EXTT6=
EXTT7=
EXTT8=
EXTT9=
EXTT10=
EXTT11=
EXTT12=
EXTT13=
EXTT14=
PLAYORDER=
